<svg xmlns="http://www.w3.org/2000/svg" viewBox="0 0 800 850" width="100%" height="100%">
  <g stroke="#1e293b" stroke-width="4" fill="none" stroke-linecap="square" stroke-linejoin="miter">
    
    <path d="M 200 750 
             L 600 750 
             L 600 600 
             L 550 600 
             L 550 450 
             L 500 450 
             L 500 350 
             L 700 150 
             L 650 100 
             L 450 300 
             L 350 300 
             L 150 100 
             L 100 150 
             L 300 350 
             L 300 450 
             L 250 450 
             L 250 600 
             L 200 600 
             Z" />

    <path d="M 200 680 L 260 680 L 260 700 M 260 720 L 260 750" />
    <path d="M 600 680 L 540 680 L 540 700 M 540 720 L 540 750" />

    <path d="M 250 600 L 380 600 M 420 600 L 550 600" />
    <path d="M 380 600 L 380 570 M 420 600 L 420 570" />

    <path d="M 250 520 L 300 520 L 300 550 M 300 570 L 300 600" />
    <path d="M 550 520 L 500 520 L 500 550 M 500 570 L 500 600" />

    <path d="M 300 450 L 380 450 M 420 450 L 500 450" />
    <path d="M 380 490 L 470 490" />
    <path d="M 330 470 L 420 470" />

    <path d="M 370 380 L 430 380 
             M 430 380 L 430 400 
             M 430 420 L 430 430 L 370 430 L 370 410 
             M 370 390 L 370 380" />

    <path d="M 300 350 L 315 335 M 335 315 L 350 300" />
    <path d="M 500 350 L 485 335 M 465 315 L 450 300" />

    <path d="M 200 250 L 215 235 M 235 215 L 250 200" />
    <path d="M 150 200 L 165 185 M 185 165 L 200 150" />

    <path d="M 600 250 L 585 235 M 565 215 L 550 200" />
    <path d="M 650 200 L 635 185 M 615 165 L 600 150" />

  </g>
</svg>